 <svg version="1.1" id="sntLogoSVG" xmlns="http://www.w3.org/2000/svg" xmlns:xlink="http://www.w3.org/1999/xlink" x="0px" y="0px" viewBox="0 0 730 124" style="enable-background:new 0 0 730 124;" xml:space="preserve"><path class="st0" d="M105.1,124.4v-21c0,0-16,6.2-30.3-5.3c-13-10.4-12.3-26.3-12.3-26.3s-1.6,1.5-2,5.5C60,81.2,56.4,85,53.9,91c-1.7,4-0.1,8.6-1.3,10.2c-0.7,1.1-0.1,2.5-0.1,2.5s6.3,9.2,17.6,15.2C87.9,128.6,105.1,124.4,105.1,124.4z" fill="rgb(33, 0, 60)"/><path class="st1" d="M105.1,21.2l-20.8,4.6c0,0-0.5,8.6-8.4,16.7c-10.5,10.9-23.4,10-23.4,10s-13.9,0.8-23.8-10.4c-9.3-10.5-8.6-21-8.6-21H0C0,21.1-0.6,38,11.6,53C25,69.5,42.5,71.7,42.5,71.7s0.7,13.6-8.7,23.2c-15.8,15.9-33.7,8.6-33.7,8.6L0,124.3c0,0,30.1,7,51.3-19c12.2-14.9,11.2-33.4,11.2-33.4s18.7-2.3,32.2-20.6C105,37.3,105.1,21.2,105.1,21.2z" fill="rgb(249, 175, 25)"/><circle class="st1" cx="52.4" cy="20.1" r="20.2" fill="rgb(249, 175, 25)"/><path class="st1" d="M583.8,79.1c0.2-1.5,0.6-3.8,0.6-6.7c0-17.7-14.4-32.2-32.4-32.2c-17.4,0-32.3,14.1-32.3,32.2c0,17.9,14.3,32.5,32.4,32.5c21,0,29.1-18.2,29.1-18.2h-14.9c0,0-5.5,5.9-14.3,5.9c-14.5,0-19.1-13.6-19.1-13.6h41l0,0L583.8,79.1zM552,52.3c8.2,0,16.6,5.3,19.3,14.6h-38.9C535.2,57.6,543.7,52.3,552,52.3z" fill="rgb(33, 0, 60)"/><path class="st1" d="M729.5,66.6h-51c2.7-9.1,11.1-14.2,19.2-14.2c9.6,0,15,6.6,15,6.6l11.6-4.9c-6.6-9.2-16.4-13.9-26.5-13.9c-17.9,0-32.4,14.1-32.4,33.2c0,1.6,0.4,3.8,0.6,5.3h10.2l0,0H717c0,0-4,14.2-19.3,14.2c-9.5,0-14.5-6.2-14.5-6.2h-14.7c0,0,8.2,18.3,29.3,18.3c19.6,0,32.3-16.7,32.3-32.5C730,70.6,729.8,68.7,729.5,66.6z" fill="rgb(33, 0, 60)"/><path class="st1" d="M470.7,66.6h-51c2.7-9.1,11.1-14.2,19.2-14.2c9.6,0,15,6.6,15,6.6l11.6-4.9c-6.6-9.2-16.4-13.9-26.5-13.9c-17.9,0-32.4,14.1-32.4,33.2c0,1.6,0.4,3.8,0.6,5.3h10.2l0,0h40.8c0,0-4.1,14.1-19.3,14.1c-9.1,0.1-14.4-6.1-14.4-6.1l-14.7-0.1c0,0,8,18.2,29.1,18.3c19.6,0,32.4-16.6,32.4-32.4C471.2,70.5,471.1,68.6,470.7,66.6z" fill="rgb(33, 0, 60)"/><path class="st1" d="M191.4,66.6h-51c2.7-9.1,11.1-14.2,19.2-14.2c9.6,0,15,6.6,15,6.6l11.6-4.9c-6.6-9.2-16.4-13.9-26.5-13.9c-17.9,0-32.4,14.1-32.4,33.2c0,1.6,0.4,3.8,0.6,5.3h10.2l0,0h40.8c0,0-4.1,14.1-19.3,14.1c-9.3,0-14.4-6.1-14.4-6.1h-14.7c0,0,8.2,18.3,29.1,18.3c19.6,0,32.4-16.6,32.4-32.4C191.9,70.6,191.8,68.7,191.4,66.6z" fill="rgb(33, 0, 60)"/><path class="st2" d="M174.2,40" fill="rgb(33, 0, 60)"/><path class="st1" d="M264.2,79.3c0.2-1.5,0.6-3.8,0.6-6.7c0-17.7-14.4-32.2-32.4-32.2c-17.4,0-32.3,14.1-32.3,32.2c0,17.9,14.3,32.5,32.4,32.5c21.2,0,29.2-18.4,29.2-18.4h-14.8c0,0-5.2,6.1-14.5,6.1c-14.5,0-19.1-13.6-19.1-13.6h40.9l0,0L264.2,79.3z M232.4,52.5c8.2,0,16.6,5.3,19.3,14.6h-38.9C215.6,57.8,224.1,52.4,232.4,52.5z" fill="rgb(33, 0, 60)"/><path class="st1" d="M313.2,105V66.2c0-4.2-1.8-7.3-3.3-8.9c-3.5-3.6-6.2-5-10.7-5c-3.8-0.1-6.6,0.7-10.4,4c-1.6,1.4-3.9,5.2-3.9,10l-0.2,38.8h-12.1l0.1-40.4c0-7.4,2.6-12.3,7.1-16.8c4.9-4.9,12.5-7.5,19.6-7.5c7,0,14.6,3,19.1,7.7c5.4,5.6,6.9,10.8,6.9,16.6l-0.1,40.4L313.2,105L313.2,105z" fill="rgb(33, 0, 60)"/><path class="st1" d="M388.9,95.6c-6.3,6.3-14,9.5-23,9.5c-8.9,0-16.6-3.3-23-9.6c-6.1-6.1-9.4-14.8-9.4-22.8c0-8.5,3.9-17.3,9.7-23c8.1-7.9,17.6-9.3,22.7-9.4c8.2,0,14.8,2.5,20.2,7V20.1h12.1l0.1,52.6C398.4,81.7,394.9,89.7,388.9,95.6z M386.2,72.7c0-6.6-2.9-11.1-6.1-14.5c-3.2-3.3-8.1-5.7-14.1-5.7s-11,2.1-14.3,5.4c-3.5,3.6-5.9,8.8-5.9,14.8c0,6.1,2.5,10.8,5.7,14c3.4,3.4,8.5,6.2,14.4,6.2s11-2.4,14.4-5.9C383.7,83.7,386.2,78.7,386.2,72.7z" fill="rgb(33, 0, 60)"/><path class="st1" d="M501.5,52.5v52.6h-12.1V52.5h-10.1V40.4h10.1V20.1h12.1v20.2h10.1v12.1L501.5,52.5L501.5,52.5z" fill="rgb(33, 0, 60)"/><path class="st1" d="M601.9,49.6c6.3-6.3,14-9.5,23-9.5c8.9,0,16.6,3.3,23,9.6c6.1,6.1,9.4,14.8,9.4,22.8c0,8.5-3.9,17.3-9.7,22.9c-8.1,7.9-17.6,9.3-22.7,9.3c-8.2,0.1-14.8-2.5-20.2-7V125h-12.1l-0.1-52.6C592.5,63.5,596,55.5,601.9,49.6z M604.6,72.5c0,6.6,2.9,11.1,6.2,14.5c3.2,3.3,8.1,5.7,14.1,5.7s11-2.1,14.3-5.4c3.5-3.6,5.9-8.8,5.9-14.8c0-6.1-2.5-10.8-5.7-14c-3.4-3.5-8.5-6.2-14.4-6.2c-6,0-11,2.5-14.4,5.9C607.2,61.5,604.6,66.4,604.6,72.5z" fill="rgb(33, 0, 60)" /></svg>